<?xml version="1.0" encoding="utf-8"?>
<!-- Generator: Adobe Illustrator 18.1.1, SVG Export Plug-In . SVG Version: 6.00 Build 0)  -->
<!DOCTYPE svg PUBLIC "-//W3C//DTD SVG 1.1//EN" "http://www.w3.org/Graphics/SVG/1.1/DTD/svg11.dtd">
<svg version="1.1" id="Layer_1" xmlns="http://www.w3.org/2000/svg" xmlns:xlink="http://www.w3.org/1999/xlink" x="0px" y="0px"
	 viewBox="0 0 409.4 340.9" enable-background="new 0 0 409.4 340.9" xml:space="preserve">
<g>
	<path fill="#231F20" stroke="#231F20" stroke-width="1.2277" stroke-miterlimit="10" d="M244.9,282.2c0,0,1.2,23.6,1.8,29
		c0.6,5.4,1.8,14,8,18c6.1,4,11.5,6.8,11.5,7.2c0,0.5,0,1.6,0,3c-8,0.9-49.1,0.9-61.5,0.9c-12.5,0-53.5,0-61.5-0.9c0-1.4,0-2.5,0-3
		c0-0.5,5.4-3.2,11.5-7.2s7.4-12.6,8-18c0.6-5.4,1.8-29,1.8-29"/>
	<path fill="#FFFFFF" stroke="#231F20" stroke-width="1.2277" stroke-miterlimit="10" d="M244.9,281c0,0,1.2,23.6,1.8,29
		s1.8,14,8,18c6.1,4,11.5,6.8,11.5,7.2c0,0.5,0,1.6,0,3c-8,0.9-49.1,0.9-61.5,0.9c-12.5,0-53.5,0-61.5-0.9c0-1.4,0-2.5,0-3
		c0-0.5,5.4-3.2,11.5-7.2s7.4-12.6,8-18s1.8-29,1.8-29"/>
	<path fill="#FFFFFF" stroke="#231F20" stroke-width="3" stroke-miterlimit="10" d="M398,281H11.3c-5.4,0-9.8-4.4-9.8-9.8V11.3
		c0-5.4,4.4-9.8,9.8-9.8H398c5.4,0,9.8,4.4,9.8,9.8v259.9C407.9,276.6,403.4,281,398,281z"/>
	<line fill="none" stroke="#231F20" stroke-width="1.2277" stroke-miterlimit="10" x1="1.5" y1="243.6" x2="407.9" y2="243.6"/>
</g>
</svg>
