<?xml version="1.0" encoding="utf-8"?>
<!-- Generator: Adobe Illustrator 18.1.1, SVG Export Plug-In . SVG Version: 6.00 Build 0)  -->
<!DOCTYPE svg PUBLIC "-//W3C//DTD SVG 1.1//EN" "http://www.w3.org/Graphics/SVG/1.1/DTD/svg11.dtd">
<svg version="1.1" id="Layer_1" xmlns="http://www.w3.org/2000/svg" xmlns:xlink="http://www.w3.org/1999/xlink" x="0px" y="0px"
	 viewBox="90 0 612 612" enable-background="new 90 0 612 612" xml:space="preserve">
<rect x="90" fill="#FFCA5B" width="612" height="612"/>
<g>
	<path fill="#231F20" d="M372.3,469.1"/>
	<path fill="#FFCA5B" d="M702,306c0,169.2-137.2,306-306,306S90,475.2,90,306c0-84.2,34.2-160.5,89.5-216.2
		C234.7,34.6,311.4,0,396,0C565.2,0,702,137.2,702,306z"/>
	
		<linearGradient id="SVGID_1_" gradientUnits="userSpaceOnUse" x1="-29.8435" y1="419.9566" x2="78.7839" y2="528.5839" gradientTransform="matrix(3.7592 0 0 -3.7592 90 2300.6387)">
		<stop  offset="0" style="stop-color:#C09178;stop-opacity:0"/>
		<stop  offset="1" style="stop-color:#C09178"/>
	</linearGradient>
	<path fill="url(#SVGID_1_)" d="M404.3,345.1L299,157.1l-49.2-20.3L90.4,296.2C90,299.6,90,303,90,306c0,81.2,0,186.5,0,306
		c86.1,0,218,0,306,0c1.5,0,3,0,4.9,0l96.2-96.6l-92.9-20.3L404.3,345.1L404.3,345.1z"/>
	<path fill="#FFFFFF" d="M565.9,222.5L543,209.4l-10.1-5.6l-2.3-1.1c-1.5-22.9,1.5-42.9,10.1-62l0,0c0.8-1.1,1.5-2.6,1.5-3.8
		c0-15-65.4-27.1-146.2-27.1s-146.2,12-146.2,27.1c0,1.1,0.4,2.6,1.5,3.8l0,0c8.3,19.2,11.3,38.7,10.1,61.7l-12.4,7.5l-22.9,13.2
		l-9.4,5.3v10.9V297v10.9l9.4,5.3l22.9,13.2l9,5.3c18,51.1,63.2,89.1,118.4,96.6c-1.5,19.2-6.4,37.2-14.3,53
		c-19.5,9.4-42.1,14.7-66.2,14.7v19.5h42.5H396h57.5H496v-19.5c-24.1,0-46.6-5.3-66.2-14.7c-7.9-16.2-12.8-34.2-14.3-53.4
		c54.5-7.9,99.6-45.5,117.3-96.2l9-5.3l22.9-13.2l9.4-5.3V297v-57.9v-10.9L565.9,222.5z"/>
	<polygon fill="#AD4AE1" points="366.3,250.7 396,233.8 425.7,250.7 425.7,315.4 396,332.3 366.3,315.4 	"/>
	<polygon fill="#AD4AE1" points="235.5,296.6 258.4,309.8 276.5,297.7 276.5,238 258.4,225.9 235.5,239.1 	"/>
	<polygon fill="#AD4AE1" points="515.5,297.7 534,309.8 556.5,296.6 556.5,239.1 534,225.9 515.5,238 	"/>
	<g>
		<g>
			<path fill="#FB89FF" d="M251.6,282.7c-3,0-5.6-2.6-5.6-5.6V253c0-3,2.6-5.6,5.6-5.6c3,0,5.6,2.6,5.6,5.6v24.1
				C257.3,280.4,254.7,282.7,251.6,282.7z"/>
		</g>
		<g>
			<path fill="#FB89FF" d="M387.7,297.4c-3,0-5.6-2.6-5.6-5.6v-24.1c0-3,2.6-5.6,5.6-5.6s5.6,2.6,5.6,5.6v24.1
				C393.4,294.7,390.7,297.4,387.7,297.4z"/>
		</g>
		<g>
			<path fill="#FB89FF" d="M531,283.4c-3,0-5.6-2.6-5.6-5.6v-24.1c0-3,2.6-5.6,5.6-5.6s5.6,2.6,5.6,5.6v24.1
				C536.6,280.8,534,283.4,531,283.4z"/>
		</g>
	</g>
</g>
</svg>
