<?xml version="1.0" encoding="utf-8"?>
<!-- Generator: Adobe Illustrator 18.1.1, SVG Export Plug-In . SVG Version: 6.00 Build 0)  -->
<!DOCTYPE svg PUBLIC "-//W3C//DTD SVG 1.1//EN" "http://www.w3.org/Graphics/SVG/1.1/DTD/svg11.dtd">
<svg version="1.1" id="Layer_1" xmlns="http://www.w3.org/2000/svg" xmlns:xlink="http://www.w3.org/1999/xlink" x="0px" y="0px"
	 viewBox="0 0 108 108" enable-background="new 0 0 108 108" xml:space="preserve">
<path fill="#522E90" d="M108,108H0V0h108V108z"/>
<polygon fill="#FFFFFF" points="16.1,40.3 21.4,40.3 33.6,56.3 33.6,40.3 39.3,40.3 39.3,66.3 34.4,66.3 21.8,49.8 21.8,66.3 
	16.1,66.3 "/>
<polygon fill="#FFFFFF" points="52.5,56 42.5,40.3 49.1,40.3 55.4,50.7 61.7,40.3 68.2,40.3 58.2,55.9 58.2,66.3 52.5,66.3 "/>
<path fill="#FFFFFF" d="M71.3,55.2V40.3h5.7V55c0,4.2,2.1,6.4,5.6,6.4c3.5,0,5.6-2.1,5.6-6.2V40.3H94V55c0,7.9-4.4,11.7-11.4,11.7
	C75.6,66.7,71.3,62.8,71.3,55.2"/>
</svg>
