<?xml version="1.0" encoding="utf-8"?>
<!-- Generator: Adobe Illustrator 19.0.0, SVG Export Plug-In . SVG Version: 6.00 Build 0)  -->
<!DOCTYPE svg PUBLIC "-//W3C//DTD SVG 1.1//EN" "http://www.w3.org/Graphics/SVG/1.1/DTD/svg11.dtd">
<svg version="1.1" id="Layer_1" xmlns="http://www.w3.org/2000/svg" xmlns:xlink="http://www.w3.org/1999/xlink" x="0px" y="0px"
	 viewBox="0 0 238.5 229" enable-background="new 0 0 238.5 229" xml:space="preserve">
<path id="XMLID_5_" fill="#CECECE" d="M119.3,229l-1.1,0l0.2-20l0.8,0L119.3,229z M122.6,229l-0.5-20l0.9,0l0.7,20L122.6,229z
	 M115,229l-1.1,0l0.8-20l0.9,0L115,229z M126.9,228.8l-1.2-20l0.9-0.1l1.4,20L126.9,228.8z M110.7,228.7l-1.1-0.1l1.5-19.9l0.9,0.1
	L110.7,228.7z M131.3,228.4l-1.9-19.9l0.9-0.1l2.1,19.9L131.3,228.4z M106.3,228.4l-1.1-0.1l2.2-19.9l0.9,0.1L106.3,228.4z
	 M135.6,228l-2.6-19.8l0.9-0.1l2.8,19.8L135.6,228z M102,227.8l-1.1-0.2l2.9-19.8l0.9,0.1L102,227.8z M139.9,227.3l-3.3-19.7
	l0.9-0.2l3.5,19.7L139.9,227.3z M97.7,227.2c-0.4-0.1-0.7-0.1-1.1-0.2l3.6-19.7l0.9,0.2L97.7,227.2z M144.2,226.5l-4-19.6l0.9-0.2
	l4.2,19.6L144.2,226.5z M93.4,226.3l-1-0.2l4.3-19.5l0.9,0.2L93.4,226.3z M148.4,225.6l-4.7-19.4l0.9-0.2l4.9,19.4
	C149.1,225.4,148.8,225.5,148.4,225.6z M89.2,225.4l-1-0.3l5-19.4l0.9,0.2L89.2,225.4z M152.6,224.5l-5.4-19.3l0.9-0.2l5.6,19.2
	C153.3,224.3,153,224.4,152.6,224.5z M85,224.2c-0.4-0.1-0.7-0.2-1.1-0.3l5.7-19.2l0.9,0.3L85,224.2z M156.8,223.2l-6.1-19l0.9-0.3
	l6.2,19L156.8,223.2z M80.8,223c-0.3-0.1-0.7-0.2-1-0.3l6.4-18.9l0.9,0.3L80.8,223z M160.9,221.8l-6.7-18.8l0.9-0.3l6.9,18.8
	C161.6,221.6,161.3,221.7,160.9,221.8z M76.7,221.5c-0.3-0.1-0.7-0.3-1-0.4l7-18.7l0.8,0.3L76.7,221.5z M165,220.3l-7.4-18.6
	l0.9-0.3l7.6,18.5L165,220.3z M72.7,220c-0.3-0.1-0.7-0.3-1-0.4l7.7-18.4l0.8,0.3L72.7,220z M169,218.6l-8.1-18.3l0.8-0.4l8.3,18.2
	C169.7,218.3,169.3,218.5,169,218.6z M68.6,218.2l-1-0.4l8.4-18.2l0.8,0.4L68.6,218.2z M173,216.8l-8.7-18l0.8-0.4l8.9,17.9
	C173.6,216.4,173.3,216.6,173,216.8z M64.7,216.4c-0.3-0.2-0.7-0.3-1-0.5l9-17.8l0.8,0.4L64.7,216.4z M176.8,214.8l-9.3-17.7
	c0.3-0.1,0.5-0.3,0.8-0.4l9.6,17.6C177.5,214.5,177.2,214.6,176.8,214.8z M60.8,214.4c-0.3-0.2-0.6-0.4-1-0.5l9.7-17.5l0.8,0.4
	L60.8,214.4z M180.6,212.7l-10-17.3c0.3-0.1,0.5-0.3,0.8-0.4l10.2,17.2C181.3,212.3,181,212.5,180.6,212.7z M57,212.2l-0.9-0.5
	l10.3-17.2l0.8,0.5L57,212.2z M184.4,210.5l-10.6-17l0.8-0.5l10.8,16.8C185,210.1,184.7,210.3,184.4,210.5z M53.3,209.9
	c-0.3-0.2-0.6-0.4-1-0.6l11-16.7c0.2,0.2,0.5,0.3,0.7,0.5L53.3,209.9z M188,208.1l-11.2-16.6l0.7-0.5l11.4,16.4
	C188.6,207.7,188.3,207.9,188,208.1z M49.6,207.5l-0.9-0.6l11.5-16.3l0.8,0.5L49.6,207.5z M191.5,205.6l-11.8-16.1
	c0.2-0.2,0.5-0.3,0.7-0.5l12,16C192.1,205.1,191.8,205.4,191.5,205.6z M46.1,204.9l-0.9-0.7l12.1-15.9l0.7,0.6L46.1,204.9z
	 M195,202.9l-12.5-15.6l0.7-0.6l12.5,15.6L195,202.9z M42.6,202.3l-0.8-0.7l12.7-15.5l0.7,0.6L42.6,202.3z M198.4,200.1l-13-15.2
	l0.7-0.6l13.1,15.1L198.4,200.1z M39.3,199.5c-0.3-0.2-0.6-0.5-0.8-0.7l13.3-15l0.7,0.6L39.3,199.5z M201.7,197.3l-13.6-14.7
	l0.7-0.6l13.7,14.6L201.7,197.3z M36,196.5c-0.3-0.2-0.5-0.5-0.8-0.8L49,181.3l0.7,0.6L36,196.5z M204.8,194.3l-14.1-14.2l0.6-0.6
	l14.2,14.1L204.8,194.3z M32.9,193.5l-0.7-0.8l14.3-14l0.7,0.7L32.9,193.5z M207.9,191.1l-14.6-13.7l0.6-0.7l14.7,13.6L207.9,191.1z
	 M29.9,190.3c-0.3-0.3-0.5-0.5-0.8-0.8L44,176.1c0.2,0.2,0.4,0.4,0.6,0.7L29.9,190.3z M210.8,187.9l-15.1-13.1l0.6-0.7l15.2,13
	C211.3,187.3,211,187.6,210.8,187.9z M27,187l-0.7-0.8l15.3-12.9l0.6,0.7L27,187z M213.6,184.5L198,172l0.6-0.7l15.7,12.4
	L213.6,184.5z M24.2,183.7l-0.7-0.8l15.8-12.3l0.6,0.7L24.2,183.7z M216.3,181.1l-16-11.9l0.5-0.7l16.1,11.8L216.3,181.1z
	 M21.5,180.2c-0.2-0.3-0.4-0.6-0.7-0.9l16.3-11.6l0.5,0.7L21.5,180.2z M218.8,177.5l-16.5-11.3c0.2-0.2,0.3-0.5,0.5-0.7l16.6,11.1
	C219.2,176.9,219,177.2,218.8,177.5z M19,176.6l-0.6-0.9l16.7-11l0.5,0.8L19,176.6z M221.2,173.9l-16.9-10.7l0.5-0.8l17,10.5
	L221.2,173.9z M16.6,172.9l-0.6-0.9l17.1-10.4l0.5,0.8L16.6,172.9z M223.5,170.1l-17.3-10l0.4-0.8l17.4,9.8
	C223.9,169.5,223.7,169.8,223.5,170.1z M14.4,169.2c-0.2-0.3-0.4-0.7-0.6-1l17.5-9.6c0.1,0.3,0.3,0.5,0.4,0.8L14.4,169.2z
	 M225.6,166.3l-17.7-9.3l0.4-0.8l17.8,9.2L225.6,166.3z M12.3,165.3c-0.2-0.3-0.3-0.7-0.5-1l17.9-9l0.4,0.8L12.3,165.3z
	 M227.6,162.3l-18-8.6l0.4-0.8l18.1,8.5L227.6,162.3z M10.4,161.4c-0.2-0.3-0.3-0.7-0.5-1l18.2-8.3l0.4,0.8L10.4,161.4z
	 M229.4,158.4l-18.4-7.9c0.1-0.3,0.2-0.5,0.3-0.8l18.4,7.7C229.7,157.7,229.6,158,229.4,158.4z M8.6,157.4l-0.4-1l18.5-7.6l0.3,0.8
	L8.6,157.4z M231.1,154.3l-18.6-7.2c0.1-0.3,0.2-0.5,0.3-0.8l18.7,7C231.3,153.6,231.2,154,231.1,154.3z M7,153.3l-0.4-1l18.8-6.9
	l0.3,0.9L7,153.3z M232.6,150.1l-18.9-6.4l0.3-0.9l19,6.3C232.8,149.4,232.7,149.8,232.6,150.1z M5.6,149.2
	c-0.1-0.3-0.2-0.7-0.3-1.1l19.1-6.1l0.3,0.8L5.6,149.2z M233.9,145.9l-19.2-5.7l0.3-0.9l19.2,5.5C234.1,145.2,234,145.6,233.9,145.9
	z M4.3,145c-0.1-0.4-0.2-0.7-0.3-1.1l19.3-5.3c0.1,0.3,0.2,0.6,0.2,0.8L4.3,145z M235.1,141.7l-19.4-4.9l0.2-0.9l19.4,4.7
	C235.3,141,235.2,141.3,235.1,141.7z M3.1,140.7C3,140.3,3,140,2.9,139.6l19.5-4.5l0.2,0.9L3.1,140.7z M236.1,137.4l-19.6-4.2
	c0.1-0.3,0.1-0.6,0.2-0.9l19.6,3.9C236.2,136.7,236.2,137.1,236.1,137.4z M2.2,136.4c-0.1-0.4-0.1-0.7-0.2-1.1l19.6-3.8l0.2,0.9
	L2.2,136.4z M236.9,133.1l-19.7-3.4c0-0.3,0.1-0.6,0.1-0.9l19.7,3.2C237,132.4,237,132.8,236.9,133.1z M1.4,132.1
	c-0.1-0.4-0.1-0.7-0.2-1.1l19.8-3l0.1,0.9L1.4,132.1z M237.6,128.8l-19.8-2.6c0-0.3,0.1-0.6,0.1-0.9l19.9,2.3
	C237.7,128,237.6,128.4,237.6,128.8z M0.8,127.7c0-0.4-0.1-0.7-0.1-1.1l19.9-2.2l0.1,0.9L0.8,127.7z M238,124.4l-19.9-1.8l0.1-0.9
	l19.9,1.6L238,124.4z M0.4,123.4l-0.1-1.1l20-1.4l0.1,0.9L0.4,123.4z M238.3,120l-20-1c0-0.3,0-0.6,0-0.9l20,0.8
	C238.4,119.3,238.4,119.6,238.3,120z M0.1,119l0-1.1l20-0.6l0,0.9L0.1,119z M238.5,115.6l-20-0.2l0-1.1h20L238.5,115.6z M0,114.6
	l0-1.1l20,0.2l0,0.8L0,114.6z M218.4,111.7l0-0.9l20-0.8l0,1.1L218.4,111.7z M20.1,111l-20-0.8c0-0.4,0-0.7,0-1.1l20,1L20.1,111z
	 M218.2,108.1l-0.1-0.9l19.9-1.6l0.1,1.1L218.2,108.1z M20.3,107.4l-19.9-1.6c0-0.4,0.1-0.7,0.1-1.1l19.9,1.8L20.3,107.4z
	 M217.9,104.5l-0.1-0.9l19.9-2.4l0.1,1.1L217.9,104.5z M20.6,103.8l-19.9-2.3c0-0.4,0.1-0.7,0.1-1.1l19.8,2.6L20.6,103.8z
	 M217.5,100.9l-0.1-0.9l19.7-3.2l0.2,1.1L217.5,100.9z M21.1,100.2L1.4,97.1c0.1-0.4,0.1-0.7,0.2-1.1l19.7,3.3L21.1,100.2z
	 M216.8,97.4c-0.1-0.3-0.1-0.6-0.2-0.9l19.6-4c0.1,0.4,0.1,0.7,0.2,1.1L216.8,97.4z M21.8,96.7L2.1,92.8c0.1-0.4,0.1-0.7,0.2-1.1
	l19.6,4.1L21.8,96.7z M216.1,93.9l-0.2-0.9l19.4-4.8c0.1,0.4,0.2,0.7,0.3,1.1L216.1,93.9z M22.5,93.2L3.1,88.5
	c0.1-0.4,0.2-0.7,0.3-1.1l19.4,4.9L22.5,93.2z M215.2,90.3c-0.1-0.3-0.2-0.6-0.2-0.8l19.2-5.5c0.1,0.4,0.2,0.7,0.3,1.1L215.2,90.3z
	 M23.5,89.7L4.2,84.2c0.1-0.4,0.2-0.7,0.3-1.1l19.2,5.7L23.5,89.7z M214.2,86.9c-0.1-0.3-0.2-0.6-0.3-0.8l19-6.3
	c0.1,0.4,0.2,0.7,0.3,1.1L214.2,86.9z M24.5,86.3L5.5,80l0.3-1l18.9,6.4L24.5,86.3z M213,83.5l-0.3-0.8l18.7-7
	c0.1,0.3,0.3,0.7,0.4,1L213,83.5z M25.7,82.8L7,75.8c0.1-0.3,0.3-0.7,0.4-1L26,82L25.7,82.8z M211.7,80.2l-0.3-0.8l18.4-7.8
	c0.1,0.3,0.3,0.7,0.4,1L211.7,80.2z M27,79.5L8.6,71.8c0.1-0.3,0.3-0.7,0.4-1l18.4,7.9L27,79.5z M210.3,76.9l-0.4-0.8l18.1-8.5
	l0.4,1L210.3,76.9z M28.5,76.2l-18.1-8.5c0.2-0.3,0.3-0.7,0.5-1l18,8.6L28.5,76.2z M208.7,73.6l-0.4-0.8l17.8-9.2l0.5,1L208.7,73.6z
	 M30.1,73l-17.8-9.2l0.5-1l17.7,9.3L30.1,73z M207,70.4l-0.4-0.8l17.4-9.9c0.2,0.3,0.4,0.6,0.5,1L207,70.4z M31.8,69.8l-17.4-9.8
	c0.2-0.3,0.4-0.6,0.5-1l17.3,10L31.8,69.8z M205.2,67.3l-0.5-0.8l17-10.5l0.6,0.9L205.2,67.3z M33.6,66.7l-17-10.5l0.6-0.9
	l16.9,10.7L33.6,66.7z M203.3,64.3l-0.5-0.7l16.6-11.2c0.2,0.3,0.4,0.6,0.6,0.9L203.3,64.3z M35.6,63.6L19,52.5
	c0.2-0.3,0.4-0.6,0.6-0.9l16.5,11.3L35.6,63.6z M201.3,61.3l-0.5-0.8l16.2-11.8l0.6,0.9L201.3,61.3z M37.7,60.7L21.5,48.9
	c0.2-0.3,0.4-0.6,0.7-0.9l16,12L37.7,60.7z M199.1,58.4c-0.2-0.2-0.4-0.5-0.5-0.7l15.7-12.4c0.2,0.3,0.5,0.6,0.7,0.9L199.1,58.4z
	 M39.9,57.8L24.2,45.4c0.2-0.3,0.5-0.6,0.7-0.9l15.6,12.5L39.9,57.8z M196.8,55.6c-0.2-0.2-0.4-0.4-0.6-0.7l15.2-13
	c0.2,0.3,0.5,0.6,0.7,0.9L196.8,55.6z M42.1,55L26.9,42l0.7-0.8l15.1,13.1L42.1,55z M194.4,52.9l-0.6-0.7l14.7-13.5
	c0.2,0.3,0.5,0.5,0.7,0.8L194.4,52.9z M44.5,52.3L29.8,38.7l0.7-0.8l14.6,13.7L44.5,52.3z M192,50.2c-0.2-0.2-0.4-0.4-0.6-0.6
	l14.2-14.1c0.3,0.3,0.5,0.5,0.8,0.8L192,50.2z M47,49.7L32.8,35.6c0.3-0.3,0.5-0.5,0.8-0.8L47.7,49L47,49.7z M189.4,47.7l-0.7-0.6
	l13.7-14.6c0.3,0.3,0.5,0.5,0.8,0.8L189.4,47.7z M49.6,47.2L36,32.5l0.8-0.7l13.5,14.7L49.6,47.2z M186.7,45.2l-0.7-0.6l13.1-15.1
	l0.8,0.7L186.7,45.2z M52.3,44.7L39.2,29.6c0.3-0.2,0.6-0.5,0.8-0.7l13,15.2L52.3,44.7z M184,42.9l-0.7-0.6l12.6-15.6l0.8,0.7
	L184,42.9z M55.1,42.4L42.5,26.8l0.8-0.7l12.4,15.7L55.1,42.4z M181.1,40.6l-0.7-0.6l12-16l0.9,0.6L181.1,40.6z M58,40.2l-12-16
	c0.3-0.2,0.6-0.4,0.9-0.7l11.8,16.1L58,40.2z M178.1,38.4l-0.7-0.5l11.4-16.5c0.3,0.2,0.6,0.4,0.9,0.6L178.1,38.4z M60.9,38.1
	L49.5,21.6l0.9-0.6l11.2,16.5L60.9,38.1z M175.1,36.4l-0.8-0.5L185.1,19c0.3,0.2,0.6,0.4,0.9,0.6L175.1,36.4z M63.9,36L53.1,19.2
	c0.3-0.2,0.6-0.4,0.9-0.6l10.6,16.9L63.9,36z M172,34.5l-0.8-0.5l10.1-17.2l0.9,0.6L172,34.5z M67,34.1L56.8,16.9
	c0.3-0.2,0.6-0.4,0.9-0.6l10,17.3L67,34.1z M168.9,32.7l-0.8-0.4l9.5-17.6c0.3,0.2,0.6,0.4,1,0.5L168.9,32.7z M70.1,32.4l-9.5-17.6
	c0.3-0.2,0.6-0.3,1-0.5l9.4,17.7L70.1,32.4z M165.7,31l-0.8-0.4l8.9-17.9l1,0.5L165.7,31z M73.4,30.7l-8.9-17.9
	c0.3-0.2,0.7-0.3,1-0.5l8.7,18L73.4,30.7z M162.4,29.4l-0.8-0.4l8.2-18.2l1,0.5L162.4,29.4z M76.7,29.1l-8.3-18.2
	c0.3-0.2,0.7-0.3,1-0.4l8.1,18.3L76.7,29.1z M159,27.9l-0.8-0.3L165.7,9c0.3,0.1,0.7,0.3,1,0.4L159,27.9z M80,27.7L72.4,9.2l1-0.4
	l7.4,18.6L80,27.7z M155.6,26.6l-0.8-0.3l6.8-18.8c0.3,0.1,0.7,0.3,1,0.4L155.6,26.6z M83.4,26.4L76.5,7.6l1-0.4L84.3,26L83.4,26.4z
	 M152.2,25.3l-0.9-0.3l6.2-19c0.3,0.1,0.7,0.2,1,0.3L152.2,25.3z M86.8,25.2l-6.2-19l1-0.3l6.1,19L86.8,25.2z M148.7,24.2l-0.9-0.3
	l5.5-19.2l1,0.3L148.7,24.2z M90.3,24.1L84.7,4.9l1-0.3l5.4,19.3L90.3,24.1z M145.2,23.3l-0.9-0.2l4.8-19.4l1,0.3L145.2,23.3z
	 M93.8,23.1L88.9,3.7l1-0.3l4.7,19.4L93.8,23.1z M141.7,22.4l-0.9-0.2l4.1-19.6c0.4,0.1,0.7,0.2,1.1,0.2L141.7,22.4z M97.4,22.3
	L93.2,2.7l1.1-0.2l4,19.6L97.4,22.3z M138.1,21.7l-0.9-0.2l3.4-19.7c0.4,0.1,0.7,0.1,1.1,0.2L138.1,21.7z M100.9,21.6L97.4,1.9
	c0.4-0.1,0.7-0.1,1.1-0.2l3.3,19.7L100.9,21.6z M134.5,21.1l-0.9-0.1l2.8-19.8l1.1,0.2L134.5,21.1z M104.5,21l-2.8-19.8l1.1-0.1
	l2.6,19.8L104.5,21z M130.9,20.6l-0.9-0.1l2-19.9l1.1,0.1L130.9,20.6z M108.1,20.6L106,0.7c0.4,0,0.7-0.1,1.1-0.1l1.9,19.9
	L108.1,20.6z M127.3,20.3l-0.9-0.1l1.3-20l1.1,0.1L127.3,20.3z M111.8,20.3l-1.4-20l1.1-0.1l1.2,20L111.8,20.3z M123.6,20.1l-0.9,0
	l0.6-20c0.4,0,0.7,0,1.1,0L123.6,20.1z M115.4,20.1l-0.7-20l1.1,0l0.6,20L115.4,20.1z M120,20l-0.8,0l-0.2,0V0l1.1,0L120,20z"/>
</svg>
